<svg width="19" height="20" viewBox="0 0 19 20" fill="none" xmlns="http://www.w3.org/2000/svg">
<path d="M8.70607 1.58853V2.08853V2.66939V3.16939H8.20607H2.71427C2.65913 3.16939 2.58723 3.18671 2.48696 3.28698C2.38669 3.38725 2.36938 3.45915 2.36938 3.51429V16.927C2.36938 16.9821 2.38669 17.054 2.48696 17.1543C2.58723 17.2545 2.65913 17.2718 2.71427 17.2718H16.1269C16.1821 17.2718 16.254 17.2545 16.3542 17.1543C16.4545 17.054 16.4718 16.9821 16.4718 16.927V11.4352V10.9352H16.9718H17.5527H18.0527V11.4352V16.927C18.0527 17.4571 17.8686 17.9254 17.497 18.297C17.1254 18.6686 16.6571 18.8527 16.1269 18.8527H2.71427C2.18409 18.8527 1.71582 18.6686 1.3442 18.297C0.972588 17.9254 0.788513 17.4571 0.788513 16.927V3.51429C0.788513 2.98411 0.972588 2.51584 1.3442 2.14422M8.70607 1.58853L1.3442 2.14422M8.70607 1.58853H8.20607M8.70607 1.58853H8.20607M1.3442 2.14422C1.71582 1.77261 2.18409 1.58853 2.71427 1.58853H8.20607M1.3442 2.14422L8.20607 1.58853M6.63798 13.4257L6.99154 13.7792L7.34509 13.4257L16.4718 4.29895V8.42522V8.92522H16.9718H17.5527H18.0527V8.42522V2.08853V1.58853H17.5527H11.216H10.716V2.08853V2.66939V3.16939H11.216H15.3423L6.21554 12.2961L5.86198 12.6497L6.21554 13.0032L6.63798 13.4257Z" fill="#272B55" stroke="#272B55"/>
</svg>
